<?xml version="1.0" encoding="iso-8859-1"?>
<!-- Generator: Adobe Illustrator 19.0.0, SVG Export Plug-In . SVG Version: 6.00 Build 0)  -->
<svg version="1.1" id="Capa_1" xmlns="http://www.w3.org/2000/svg" xmlns:xlink="http://www.w3.org/1999/xlink" x="0px" y="0px"
	 viewBox="0 0 512 512" style="enable-background:new 0 0 512 512;" xml:space="preserve">
<g>
	<g>
		<path d="M497,380.698H361v-75c0-8.284-6.716-15-15-15H166c-8.284,0-15,6.716-15,15v45H15c-8.284,0-15,6.716-15,15v120
			c0,8.284,6.716,15,15,15c5.697,0,472.275,0,482,0c8.284,0,15-6.716,15-15v-90C512,387.414,505.284,380.698,497,380.698z
			 M151,470.698H30v-90h121V470.698z M331,470.698H181c0-10.806,0-145.117,0-150h150C331,327.29,331,464.12,331,470.698z
			 M482,470.698H361v-60h121V470.698z"/>
	</g>
</g>
<g>
	<g>
		<path d="M352.642,80.998l-58.347-8.478l-26.094-52.872c-5.49-11.124-21.408-11.132-26.902,0L215.205,72.52l-58.347,8.478
			c-12.276,1.784-17.203,16.92-8.313,25.585l42.221,41.155l-9.967,58.111c-2.097,12.225,10.776,21.591,21.764,15.813l52.188-27.436
			l52.188,27.436c10.968,5.767,23.867-3.552,21.764-15.813l-9.967-58.111l42.221-41.155
			C369.838,97.924,364.928,82.783,352.642,80.998z M292.147,131.76c-3.535,3.446-5.148,8.411-4.314,13.277l6.162,35.928
			l-32.266-16.963c-4.369-2.297-9.59-2.298-13.96,0l-32.266,16.963l6.162-35.928c0.834-4.866-0.779-9.831-4.314-13.277
			l-26.104-25.445l36.074-5.242c4.885-0.71,9.109-3.779,11.294-8.206l16.133-32.689l16.133,32.689
			c2.185,4.427,6.409,7.496,11.294,8.206l36.074,5.242L292.147,131.76z"/>
	</g>
</g>
<g>
	<g>
		<path d="M286,410.698h-15v-45c0-8.284-6.716-15-15-15h-30c-8.284,0-15,6.716-15,15s6.716,15,15,15h15v30h-15
			c-8.284,0-15,6.716-15,15s6.716,15,15,15h60c8.284,0,15-6.716,15-15S294.284,410.698,286,410.698z"/>
	</g>
</g>
<g>
	<g>
		<path d="M493.74,209.044l-30.603-4.446l-13.686-27.731c-5.489-11.123-21.408-11.133-26.902,0l-13.686,27.731l-30.603,4.446
			c-12.276,1.784-17.203,16.92-8.313,25.585l22.145,21.585l-5.228,30.479c-2.097,12.225,10.776,21.59,21.764,15.813L436,288.117
			l27.372,14.39c10.967,5.768,23.867-3.552,21.764-15.813l-5.228-30.479l22.145-21.585
			C510.936,225.971,506.026,210.83,493.74,209.044z M453.321,240.237c-3.535,3.446-5.148,8.411-4.314,13.277l1.423,8.296
			l-7.45-3.917c-4.368-2.297-9.591-2.298-13.96,0l-7.45,3.917l1.423-8.296c0.834-4.866-0.779-9.831-4.314-13.277l-6.027-5.875
			l8.329-1.21c4.886-0.71,9.109-3.779,11.294-8.206l3.725-7.548l3.725,7.548c2.185,4.427,6.409,7.496,11.294,8.206l8.329,1.21
			L453.321,240.237z"/>
	</g>
</g>
<g>
	<g>
		<path d="M133.74,179.044l-30.603-4.446l-13.686-27.731c-5.489-11.123-21.408-11.133-26.902,0l-13.686,27.731l-30.603,4.446
			c-12.276,1.784-17.203,16.92-8.313,25.585l22.145,21.585l-5.228,30.479c-2.097,12.225,10.776,21.59,21.764,15.813L76,258.117
			l27.372,14.39c10.967,5.768,23.867-3.552,21.764-15.813l-5.228-30.479l22.145-21.585
			C150.936,195.971,146.026,180.83,133.74,179.044z M93.321,210.237c-3.535,3.446-5.148,8.411-4.314,13.277l1.423,8.296l-7.45-3.917
			c-4.368-2.297-9.591-2.298-13.96,0l-7.45,3.917l1.423-8.296c0.834-4.866-0.779-9.831-4.314-13.277l-6.027-5.875l8.329-1.21
			c4.886-0.71,9.109-3.779,11.294-8.206L76,187.398l3.725,7.548c2.185,4.427,6.409,7.496,11.294,8.206l8.329,1.21L93.321,210.237z"
			/>
	</g>
</g>
<g>
</g>
<g>
</g>
<g>
</g>
<g>
</g>
<g>
</g>
<g>
</g>
<g>
</g>
<g>
</g>
<g>
</g>
<g>
</g>
<g>
</g>
<g>
</g>
<g>
</g>
<g>
</g>
<g>
</g>
</svg>
