<?xml version="1.0" encoding="iso-8859-1"?>
<!-- Generator: Adobe Illustrator 19.0.0, SVG Export Plug-In . SVG Version: 6.00 Build 0)  -->
<svg version="1.1" id="Capa_1" xmlns="http://www.w3.org/2000/svg" xmlns:xlink="http://www.w3.org/1999/xlink" x="0px" y="0px"
	 viewBox="0 0 435.2 435.2" style="enable-background:new 0 0 435.2 435.2;" xml:space="preserve">
<g>
	<g>
		<path d="M425.6,173.4c-5.6-5.6-13.2-9.2-22-9.2H298v-130c0-8.4-3.6-16.4-9.2-22c-5.6-5.6-13.2-9.2-22-9.2h-99.6
			c-8.4,0-16,3.6-21.6,9.2c-5.6,5.6-9.2,13.2-9.2,21.6v66.8H30.8c-8.4,0-16,3.6-21.6,9.2S0,123,0,131.4V401c0,8.4,3.6,16.4,9.2,22
			c5.6,5.6,13.2,9.2,22,9.2h118.4H286h118.4c8.4,0,16-3.6,21.6-9.2c5.6-5.6,9.2-13.2,9.2-21.6v-206
			C434.8,186.6,431.2,179,425.6,173.4z M136,407H30.8c-1.6-0.4-2.8-0.8-4-2c-0.8-0.8-1.6-2.4-1.6-3.6V131.8c0-1.6,0.4-2.8,1.6-3.6
			c0.8-0.8,2.4-1.6,3.6-1.6H136V407z M272.4,177v229.6H161.6V113.8V34.2c0-1.6,0.4-2.8,1.6-3.6c0.8-0.8,2.4-1.6,3.6-1.6h100.4
			c1.6,0,2.8,0.8,3.6,1.6c0.8,0.8,1.6,2.4,1.6,3.6V177z M408.8,401.4c0,1.6-0.4,2.8-1.6,3.6c-0.8,0.8-2.4,1.6-3.6,1.6H298V189.8
			h105.6c1.6,0,2.8,0.8,3.6,1.6c0.8,0.8,1.6,2.4,1.6,3.6V401.4z"/>
		<path d="M230,108.6c-1.2-0.8-3.2-1.2-5.6-1.2c-1.6,0-4,0.8-6.8,2.4c-2.8,1.6-8.4,5.2-16,10.8c-1.6,1.2-3.2,2.4-4,3.6
			c-0.8,1.2-1.2,2.8-1.2,4.4c0,2,0.8,4,2.4,6c1.6,2,3.6,3.2,5.6,3.2s3.6-0.4,5.2-1.2c2.4-1.2,4.4-2.8,6-4.4c0,1.6,0,4,0,7.2
			c0,3.2,0,5.6,0,7.6c0,5.2,0,11.2-0.4,18.4c0,7.2-0.4,11.6-0.4,13.6c0,2.8,0.8,4.8,2.8,6.4c1.6,1.6,4,2.4,6.8,2.4s4.8-0.8,6.8-2
			s2.8-3.2,2.8-5.6c0-4.8,0-12,0-22c0-9.6,0-17.2,0-22v-20.8C234,112.2,232.8,110.2,230,108.6z"/>
		<path d="M74.8,245.4c-2,2-5.6,5.2-10,9.2c-4.8,4-7.2,6.4-8,7.2c-2.4,2-4,4-4.8,6c-0.8,2-1.2,4-1.2,6.4c0,2.8,0.8,5.2,2.8,7.2
			c1.6,2,4,2.8,6.8,2.8c11.2,0,19.6,0.4,26,0.4h12.8c2.8,0,4.8-0.8,6.4-2.4c1.6-1.6,2.4-4,2.4-7.2c0-2.4-0.8-4.4-2-6.4
			c-1.2-1.2-2.8-2-5.2-2c-0.8,0-1.6,0-2.8,0c-1.2,0-2,0-2.8,0H94c-7.2,0.4-12.4,0.4-16,0l7.6-6.4c3.6-3.2,6-5.2,7.2-6
			c1.2-1.2,2.8-2.8,5.6-5.2c2.4-2.4,4-4.4,4.8-6c0.8-1.6,1.6-3.6,2.4-6c0.8-2.4,1.2-4.8,1.2-7.2c0-7.6-2.8-14-8.8-18.4
			c-6-4.4-12.8-6.8-21.2-6.8c-6.4,0-12.4,2-18,6.4c-4.8,3.6-7.2,7.2-7.2,10.8c0,2.4,0.8,4.4,2.4,6.4c1.6,2,3.6,2.8,6,2.8
			c3.2,0,6-1.2,8-3.2c3.2-3.2,6.4-4.8,9.2-4.8s4.8,0.8,6.4,2c1.6,1.2,2.8,3.2,2.8,5.2c0,1.2-0.4,2.8-1.6,4.4
			C83.6,236.2,80.4,239.8,74.8,245.4z"/>
		<path d="M360.8,313l14.8-14.4c2.4-2,3.6-4.8,3.6-8c0-2.4-0.8-4.4-2-5.6c-1.2-1.6-3.2-2.4-6-2.4s-6.4,0-11.6,0s-9.2,0-11.6,0
			c-1.6,0-4.4,0-7.6,0s-5.2,0-5.6,0c-3.2,0-5.2,0.8-6.4,2.4c-1.2,1.6-2,4-2,6.4c0,5.6,3.2,8.8,9.2,8.8c4,0,10,0,17.6-0.4
			c-1.2,1.2-2.4,2.4-4,3.6c-1.2,1.2-2.8,2.8-4.8,4c-1.6,1.6-3.2,2.8-4,3.6c-2.4,2-3.6,4.8-3.6,7.6c0,2.4,0.8,4.4,2,6.4
			c1.2,1.6,3.2,2.8,5.6,2.8c1.2,0,2.4,0,4,0c8.4,0,12.8,2.8,12.8,8.4c0,3.2-1.2,5.2-3.2,6.8c-2,1.6-4.8,2.4-8,2.4
			c-2.4,0-5.2-0.8-8.8-2.8c-3.2-1.6-5.6-2.4-8-2.4c-2,0-4,0.8-5.6,2.8c-1.6,2-2.4,4-2.4,6.8c0,3.6,2,6.4,6,8.8
			c5.6,3.2,12,4.4,18.8,4.4c8.8,0,16-2.4,21.6-7.2c5.6-4.8,8-11.6,8-20.4c0-6-2-10.8-6-14.8C370.8,316.2,366,313.8,360.8,313z"/>
	</g>
</g>
<g>
</g>
<g>
</g>
<g>
</g>
<g>
</g>
<g>
</g>
<g>
</g>
<g>
</g>
<g>
</g>
<g>
</g>
<g>
</g>
<g>
</g>
<g>
</g>
<g>
</g>
<g>
</g>
<g>
</g>
</svg>
